<svg xmlns="http://www.w3.org/2000/svg" width="80" viewBox="0 0 80 80" height="80"><rect x="0" y="0" width="80" fill="#d5eef5" height="80"/><path d="M 40 12 L 40 32 C 40 36.4183 36.4183 40 32 40 L 12 40 C 7.5817 40 4 36.4183 4 32 L 4 12 C 4 7.5817 7.5817 4 12 4 L 32 4 C 36.4183 4 40 7.5817 40 12 Z" fill="#e1f5fa"/><path d="M 80 52 L 80 72 C 80 76.4183 76.4183 80 72 80 L 52 80 C 47.5817 80 44 76.4183 44 72 L 44 52 C 44 47.5817 47.5817 44 52 44 L 72 44 C 76.4183 44 80 47.5817 80 52 Z" fill="#e1f5fa"/></svg>