<svg xmlns="http://www.w3.org/2000/svg" height="283" width="480" viewBox="-295 182 551 10"><g transform="matrix(1 0 0 1 64.5235824584961 115.20948028564453)"><path d="M 6 0 L 66 0 C 69.3137 0 72 2.6863 72 6 L 72 368 L 0 368 L 0 6 C 0 2.6863 2.6863 0 6 0 Z" fill="#a3d6c1"/></g><g transform="matrix(1 0 0 1 184.52359008789062 85.20948028564453)"><path d="M 6 0 L 66 0 C 69.3137 0 72 2.6863 72 6 L 72 368 L 0 368 L 0 6 C 0 2.6863 2.6863 0 6 0 Z" fill="#a3d6c1"/></g><g transform="matrix(1 0 0 1 -235.47640991210938 72.7013988494873)"><path d="M 72 18.5081 L 72 380.5081 L 0 380.5081 L 0 18.5081 C 0 15.1944 2.6863 12.5081 6 12.5081 L 7.57 12.5081 C 7.5681 12.3715 7.5918 12.2358 7.64 12.1081 L 12.64 0.6081 C 12.7971 0.2393 13.1592 0 13.56 0 C 13.9608 0 14.3229 0.2393 14.48 0.6081 L 19.48 12.1081 C 19.5282 12.2358 19.5519 12.3715 19.55 12.5081 L 22.55 12.5081 C 22.5481 12.3715 22.5718 12.2358 22.62 12.1081 L 27.62 0.6081 C 27.7771 0.2393 28.1392 0 28.54 0 C 28.9408 0 29.3029 0.2393 29.46 0.6081 L 34.46 12.1081 C 34.5082 12.2358 34.5319 12.3715 34.53 12.5081 L 37.53 12.5081 C 37.5281 12.3715 37.5518 12.2358 37.6 12.1081 L 42.6 0.6081 C 42.7571 0.2393 43.1192 0 43.52 0 C 43.9208 0 44.2829 0.2393 44.44 0.6081 L 49.44 12.1081 C 49.4882 12.2358 49.5119 12.3715 49.51 12.5081 L 52.51 12.5081 C 52.5081 12.3715 52.5318 12.2358 52.58 12.1081 L 57.58 0.6081 C 57.7371 0.2393 58.0992 0 58.5 0 C 58.9008 0 59.2629 0.2393 59.42 0.6081 L 64.42 12.1081 C 64.4682 12.2358 64.4919 12.3715 64.49 12.5081 L 66 12.5081 C 69.3137 12.5081 72 15.1944 72 18.5081 Z" fill="#a3d6c1"/></g><g transform="matrix(1 0 0 1 124.52359008789062 85.20948028564453)"><path d="M 6 0 L 66 0 C 69.3137 0 72 2.6863 72 6 L 72 368 L 0 368 L 0 6 C 0 2.6863 2.6863 0 6 0 Z" fill="#a3d6c1"/></g><g transform="matrix(1 0 0 1 -295.4764099121094 25.20948028564453)"><path d="M 6 30 L 66 30 C 69.3137 30 72 32.6863 72 36 L 72 398 L 0 398 L 0 36 C 0 32.6863 2.6863 30 6 30 Z" fill="#a3d6c1"/><path d="M 6 0 L 36 0 C 39.3137 0 42 2.6863 42 6 L 42 368 L 0 368 L 0 6 C 0 2.6863 2.6863 0 6 0 Z" fill="#a3d6c1"/></g><g transform="matrix(1 0 0 1 -175.47640991210938 85.20948028564453)"><path d="M 6 0 L 66 0 C 69.3137 0 72 2.6863 72 6 L 72 368 L 0 368 L 0 6 C 0 2.6863 2.6863 0 6 0 Z" fill="#a3d6c1"/></g><g transform="matrix(1 0 0 1 -115.4764175415039 55.20948028564453)"><path d="M 6 30 L 66 30 C 69.3137 30 72 32.6863 72 36 L 72 398 L 0 398 L 0 36 C 0 32.6863 2.6863 30 6 30 Z" fill="#a3d6c1"/><path d="M 6 0 L 36 0 C 39.3137 0 42 2.6863 42 6 L 42 368 L 0 368 L 0 6 C 0 2.6863 2.6863 0 6 0 Z" fill="#a3d6c1"/></g><g transform="matrix(1 0 0 1 -55.476417541503906 72.7013988494873)"><path d="M 72 18.5081 L 72 380.5081 L 0 380.5081 L 0 18.5081 C 0 15.1944 2.6863 12.5081 6 12.5081 L 7.57 12.5081 C 7.5681 12.3715 7.5918 12.2358 7.64 12.1081 L 12.64 0.6081 C 12.7971 0.2393 13.1592 0 13.56 0 C 13.9608 0 14.3229 0.2393 14.48 0.6081 L 19.48 12.1081 C 19.5282 12.2358 19.5519 12.3715 19.55 12.5081 L 22.55 12.5081 C 22.5481 12.3715 22.5718 12.2358 22.62 12.1081 L 27.62 0.6081 C 27.7771 0.2393 28.1392 0 28.54 0 C 28.9408 0 29.3029 0.2393 29.46 0.6081 L 34.46 12.1081 C 34.5082 12.2358 34.5319 12.3715 34.53 12.5081 L 37.53 12.5081 C 37.5281 12.3715 37.5518 12.2358 37.6 12.1081 L 42.6 0.6081 C 42.7571 0.2393 43.1192 0 43.52 0 C 43.9208 0 44.2829 0.2393 44.44 0.6081 L 49.44 12.1081 C 49.4882 12.2358 49.5119 12.3715 49.51 12.5081 L 52.51 12.5081 C 52.5081 12.3715 52.5318 12.2358 52.58 12.1081 L 57.58 0.6081 C 57.7371 0.2393 58.0992 0 58.5 0 C 58.9008 0 59.2629 0.2393 59.42 0.6081 L 64.42 12.1081 C 64.4682 12.2358 64.4919 12.3715 64.49 12.5081 L 66 12.5081 C 69.3137 12.5081 72 15.1944 72 18.5081 Z" fill="#a3d6c1"/></g><g transform="matrix(1 0 0 1 4.523582458496094 55.20948028564453)"><path d="M 6 30 L 66 30 C 69.3137 30 72 32.6863 72 36 L 72 398 L 0 398 L 0 36 C 0 32.6863 2.6863 30 6 30 Z" fill="#a3d6c1"/><path d="M 6 0 L 36 0 C 39.3137 0 42 2.6863 42 6 L 42 368 L 0 368 L 0 6 C 0 2.6863 2.6863 0 6 0 Z" fill="#a3d6c1"/></g></svg>